<svg xmlns="http://www.w3.org/2000/svg" width="1200" height="420" viewBox="0 0 1200 420" fill="none">
  <defs>
    <linearGradient id="sg" x1="0" y1="0" x2="1" y2="1">
      <stop offset="0" stop-color="#064e3b"/>
      <stop offset="0.55" stop-color="#0d9488"/>
      <stop offset="1" stop-color="#0ea5e9"/>
    </linearGradient>
  </defs>
  <rect width="1200" height="420" fill="url(#sg)"/>
  <circle cx="1000" cy="210" r="240" fill="#ffffff" opacity="0.06"/>
  <circle cx="170" cy="80" r="130" fill="#ffffff" opacity="0.05"/>
  <!-- escudo com check -->
  <g transform="translate(960 210)">
    <path d="M0,-150 C60,-110 120,-100 150,-100 C150,-20 130,90 0,160 C-130,90 -150,-20 -150,-100 C-120,-100 -60,-110 0,-150 Z" fill="#ffffff" opacity="0.12"/>
    <path d="M0,-120 C48,-88 96,-80 120,-80 C120,-16 104,72 0,128 C-104,72 -120,-16 -120,-80 C-96,-80 -48,-88 0,-120 Z" fill="#ecfdf5"/>
    <path d="M-52,4 L-14,44 L60,-44" stroke="#0d9488" stroke-width="22" stroke-linecap="round" stroke-linejoin="round" fill="none"/>
  </g>
  <!-- texto -->
  <text x="80" y="150" font-family="Arial, Helvetica, sans-serif" font-size="38" font-weight="800" fill="#a7f3d0" letter-spacing="3">COMPRA 100% PROTEGIDA</text>
  <text x="76" y="244" font-family="Arial, Helvetica, sans-serif" font-size="80" font-weight="900" fill="#ffffff">Vendedores</text>
  <text x="76" y="328" font-family="Arial, Helvetica, sans-serif" font-size="80" font-weight="900" fill="#ffffff">verificados ✓</text>
  <text x="80" y="372" font-family="Arial, Helvetica, sans-serif" font-size="26" font-weight="500" fill="#d1fae5">Pague com segurança pelo Mercado Pago — Pix, cartão e boleto.</text>
  <g transform="translate(80 392)">
    <rect width="280" height="0" />
  </g>
</svg>
