<svg xmlns="http://www.w3.org/2000/svg" width="1200" height="420" viewBox="0 0 1200 420" fill="none">
  <defs>
    <linearGradient id="of" x1="0" y1="0" x2="1" y2="1">
      <stop offset="0" stop-color="#7c1d1d"/>
      <stop offset="0.5" stop-color="#dc2626"/>
      <stop offset="1" stop-color="#f97316"/>
    </linearGradient>
    <linearGradient id="ofText" x1="0" y1="0" x2="0" y2="1">
      <stop offset="0" stop-color="#fff7ed"/>
      <stop offset="1" stop-color="#fed7aa"/>
    </linearGradient>
  </defs>
  <rect width="1200" height="420" rx="0" fill="url(#of)"/>
  <circle cx="980" cy="120" r="220" fill="#ffffff" opacity="0.06"/>
  <circle cx="1080" cy="360" r="160" fill="#ffffff" opacity="0.05"/>
  <circle cx="180" cy="360" r="120" fill="#ffffff" opacity="0.05"/>
  <!-- selo % -->
  <g transform="translate(940 210)">
    <path d="M0,-150 L40,-130 L88,-138 L100,-92 L138,-62 L116,-20 L124,28 L78,40 L48,78 L4,58 L-40,72 L-58,28 L-96,2 L-74,-40 L-82,-88 L-36,-100 Z" fill="#fde68a"/>
    <text x="0" y="-10" font-family="Arial, Helvetica, sans-serif" font-size="74" font-weight="900" fill="#7c1d1d" text-anchor="middle">70%</text>
    <text x="0" y="46" font-family="Arial, Helvetica, sans-serif" font-size="34" font-weight="800" fill="#9a3412" text-anchor="middle">OFF</text>
  </g>
  <!-- texto -->
  <text x="80" y="150" font-family="Arial, Helvetica, sans-serif" font-size="40" font-weight="800" fill="#fde68a" letter-spacing="3">⚡ OFERTAS RELÂMPAGO</text>
  <text x="76" y="248" font-family="Arial, Helvetica, sans-serif" font-size="86" font-weight="900" fill="url(#ofText)">Descontos de até</text>
  <text x="76" y="332" font-family="Arial, Helvetica, sans-serif" font-size="86" font-weight="900" fill="#ffffff">70% OFF hoje</text>
  <g transform="translate(80 360)">
    <rect width="240" height="56" rx="28" fill="#fde68a"/>
    <text x="120" y="37" font-family="Arial, Helvetica, sans-serif" font-size="24" font-weight="800" fill="#7c1d1d" text-anchor="middle">Ver ofertas →</text>
  </g>
</svg>
